<svg width="34" height="35" viewBox="0 0 34 35" fill="none" xmlns="http://www.w3.org/2000/svg">
<path d="M16.7273 34.309C25.9655 34.309 33.4545 26.82 33.4545 17.5818C33.4545 8.34354 25.9655 0.854492 16.7273 0.854492C7.48905 0.854492 0 8.34354 0 17.5818C0 26.82 7.48905 34.309 16.7273 34.309Z" fill="#3758F9"/>
<g clip-path="url(#clip0_2414_2407)">
<path d="M14.5441 24.0108C13.7479 23.283 13.5155 21.7539 13.8472 20.646C14.4224 21.3445 15.2193 21.5657 16.0448 21.6906C17.3191 21.8834 18.5706 21.8113 19.7544 21.2288C19.8898 21.1622 20.015 21.0735 20.1629 20.9837C20.274 21.3059 20.3029 21.6313 20.2641 21.9624C20.1698 22.7688 19.7685 23.3917 19.1302 23.864C18.8749 24.0528 18.6048 24.2217 18.3412 24.3998C17.5313 24.9471 17.3122 25.589 17.6166 26.5225C17.6238 26.5454 17.6303 26.5681 17.6466 26.6236C17.2331 26.4385 16.9311 26.169 16.7009 25.8148C16.4579 25.4409 16.3422 25.0273 16.3361 24.5798C16.3331 24.362 16.3331 24.1423 16.3038 23.9275C16.2323 23.4041 15.9866 23.1697 15.5236 23.1562C15.0485 23.1423 14.6727 23.4361 14.573 23.8986C14.5654 23.9341 14.5544 23.9692 14.5433 24.0104L14.5441 24.0108Z" fill="white"/>
<path d="M10 20.4613C10 20.4613 12.3576 19.3128 14.7218 19.3128L16.5043 13.7963C16.571 13.5295 16.7658 13.3482 16.9858 13.3482C17.2058 13.3482 17.4006 13.5295 17.4674 13.7963L19.2499 19.3128C22.0499 19.3128 23.9716 20.4613 23.9716 20.4613C23.9716 20.4613 19.9671 9.55215 19.9593 9.53026C19.8443 9.20773 19.6503 9 19.3887 9H14.5833C14.3218 9 14.1356 9.20773 14.0128 9.53026C14.0041 9.55174 10 20.4613 10 20.4613Z" fill="white"/>
</g>
<defs>
<clipPath id="clip0_2414_2407">
<rect width="14" height="17.6235" fill="white" transform="translate(10 9)"/>
</clipPath>
</defs>
</svg>
