<svg width="132" height="46" viewBox="0 0 132 46" fill="none" xmlns="http://www.w3.org/2000/svg">
<g clip-path="url(#clip0_2413_2099)">
<path d="M54.9519 12.0439C56.8799 12.0439 58.5538 12.3618 59.9734 12.9974C61.4142 13.633 62.5159 14.5441 63.2787 15.7306C64.0415 16.9172 64.4229 18.3261 64.4229 19.9576C64.4229 21.5679 64.0415 22.9769 63.2787 24.1846C62.5159 25.3712 61.4142 26.2822 59.9734 26.9178C58.5538 27.5535 56.8799 27.8713 54.9519 27.8713H49.9303V34.2912H45.7987V12.0439H54.9519ZM54.7612 24.3753C56.5621 24.3753 57.9287 23.9939 58.861 23.2311C59.7933 22.4684 60.2594 21.3772 60.2594 19.9576C60.2594 18.5381 59.7933 17.4469 58.861 16.6841C57.9287 15.9213 56.5621 15.5399 54.7612 15.5399H49.9303V24.3753H54.7612ZM68.967 12.0439H73.0986V30.7952H84.7308V34.2912H68.967V12.0439ZM104.668 29.1426H93.5439L91.351 34.2912H87.0922L97.1035 12.0439H101.172L111.215 34.2912H106.892L104.668 29.1426ZM103.301 25.9008L99.1058 16.1756L94.9423 25.9008H103.301ZM122.726 26.4411V34.2912H118.594V26.5047L109.854 12.0439H114.272L120.787 22.8815L127.366 12.0439H131.434L122.726 26.4411Z" fill="white"/>
<path d="M16.7273 39.309C25.9655 39.309 33.4545 31.82 33.4545 22.5818C33.4545 13.3435 25.9655 5.85449 16.7273 5.85449C7.48905 5.85449 0 13.3435 0 22.5818C0 31.82 7.48905 39.309 16.7273 39.309Z" fill="white"/>
<g clip-path="url(#clip1_2413_2099)">
<path d="M14.5441 29.0108C13.7479 28.283 13.5155 26.7539 13.8472 25.646C14.4224 26.3445 15.2193 26.5657 16.0448 26.6906C17.3191 26.8834 18.5706 26.8113 19.7544 26.2288C19.8898 26.1622 20.015 26.0735 20.1629 25.9837C20.274 26.3059 20.3029 26.6313 20.2641 26.9624C20.1698 27.7688 19.7685 28.3917 19.1302 28.864C18.8749 29.0528 18.6048 29.2217 18.3412 29.3998C17.5313 29.9471 17.3122 30.589 17.6166 31.5225C17.6238 31.5454 17.6303 31.5681 17.6466 31.6236C17.2331 31.4385 16.9311 31.169 16.7009 30.8148C16.4579 30.4409 16.3422 30.0273 16.3361 29.5798C16.3331 29.362 16.3331 29.1423 16.3038 28.9275C16.2323 28.4041 15.9866 28.1697 15.5236 28.1562C15.0485 28.1423 14.6727 28.4361 14.573 28.8986C14.5654 28.9341 14.5544 28.9692 14.5433 29.0104L14.5441 29.0108Z" fill="#3056D3"/>
<path d="M10 25.4613C10 25.4613 12.3576 24.3128 14.7218 24.3128L16.5043 18.7963C16.571 18.5295 16.7658 18.3482 16.9858 18.3482C17.2058 18.3482 17.4006 18.5295 17.4674 18.7963L19.2499 24.3128C22.0499 24.3128 23.9716 25.4613 23.9716 25.4613C23.9716 25.4613 19.9671 14.5521 19.9593 14.5303C19.8443 14.2077 19.6503 14 19.3887 14H14.5833C14.3218 14 14.1356 14.2077 14.0128 14.5303C14.0041 14.5517 10 25.4613 10 25.4613Z" fill="#3056D3"/>
</g>
</g>
<defs>
<clipPath id="clip0_2413_2099">
<rect width="131.309" height="46" fill="white"/>
</clipPath>
<clipPath id="clip1_2413_2099">
<rect width="14" height="17.6235" fill="white" transform="translate(10 14)"/>
</clipPath>
</defs>
</svg>
